<svg id="ja_logo" data-name="Layer 1" xmlns="http://www.w3.org/2000/svg" viewBox="0 0 2068 560"><path class="cls-1" d="M997.86 472h-21a9.23 9.23.0 01-5.81-1.75 10 10 0 01-3.28-4.34l-10.9-29.46H896.39l-10.9 29.46a9.46 9.46.0 01-3.18 4.19 9 9 0 01-5.81 1.9H855.4l57.35-144.4h27.76zm-94.5-54.52H949.9l-17.77-48c-.8-2.13-1.7-4.64-2.67-7.54s-1.94-6-2.88-9.43q-1.41 5.08-2.78 9.49c-.9 2.93-1.8 5.49-2.67 7.68z"></path><path class="cls-1" d="M1091.15 353.89a7.49 7.49.0 01-2.58 3.09 6.48 6.48.0 01-3.48.9 8.82 8.82.0 01-4.54-1.55c-1.69-1-3.67-2.18-6-3.44a49.37 49.37.0 00-8-3.45 34.11 34.11.0 00-10.85-1.55 32.15 32.15.0 00-9.84 1.35 20.87 20.87.0 00-7.07 3.75 14.87 14.87.0 00-4.29 5.74 18.55 18.55.0 00-1.42 7.34 12.69 12.69.0 002.88 8.49 24.12 24.12.0 007.62 5.79 70.77 70.77.0 0010.81 4.29q6.06 1.91 12.36 4.05a118.83 118.83.0 0112.37 5 43 43 0 0110.81 7.19 32.66 32.66.0 017.62 10.64 36.5 36.5.0 012.88 15.27 49.2 49.2.0 01-3.39 18.33 42.23 42.23.0 01-9.89 14.88 46.6 46.6.0 01-15.9 10 59.14 59.14.0 01-21.51 3.65 70 70 0 01-13.73-1.35 73.3 73.3.0 01-13-3.84 67.67 67.67.0 01-11.61-6 56.83 56.83.0 01-9.65-7.78l7.88-12.89a9.9 9.9.0 012.68-2.34 6.59 6.59.0 013.48-.95 9.66 9.66.0 015.45 2c2 1.36 4.26 2.88 6.92 4.54a53 53 0 009.39 4.54 36.51 36.51.0 0013 2q11.61.0 18-5.44t6.36-15.63a14.4 14.4.0 00-2.88-9.29 23.19 23.19.0 00-7.62-6 57.08 57.08.0 00-10.8-4.14q-6.06-1.69-12.32-3.7a107.74 107.74.0 01-12.32-4.79 40.26 40.26.0 01-10.8-7.29 33.22 33.22.0 01-7.62-11.24q-2.88-6.73-2.88-16.62a39 39 0 013.18-15.38 39.41 39.41.0 019.29-13.28 46 46 0 0115-9.29 55.17 55.17.0 0120.3-3.49 68.83 68.83.0 0123.82 4 53.94 53.94.0 0118.58 11.18z"></path><path class="cls-1" d="M1199.48 353.89a7.42 7.42.0 01-2.58 3.09 6.48 6.48.0 01-3.48.9 8.82 8.82.0 01-4.54-1.55q-2.52-1.54-6-3.44a49 49 0 00-8-3.45 34.11 34.11.0 00-10.85-1.55 32.15 32.15.0 00-9.84 1.35 20.87 20.87.0 00-7.07 3.75 14.87 14.87.0 00-4.29 5.74 18.72 18.72.0 00-1.41 7.34 12.69 12.69.0 002.87 8.49 24.05 24.05.0 007.63 5.79 70.22 70.22.0 0010.8 4.29q6.06 1.91 12.37 4.05a118.67 118.67.0 0112.36 5 43 43 0 0110.81 7.19 32.66 32.66.0 017.62 10.64 36.5 36.5.0 012.88 15.27 49.2 49.2.0 01-3.39 18.33 42.23 42.23.0 01-9.89 14.88 46.6 46.6.0 01-15.9 10 59.14 59.14.0 01-21.51 3.65 70 70 0 01-13.73-1.35 73.3 73.3.0 01-13-3.84 67.67 67.67.0 01-11.61-6 56.75 56.75.0 01-9.64-7.78l7.87-12.89a9.9 9.9.0 012.68-2.34 6.59 6.59.0 013.48-.95 9.66 9.66.0 015.45 2c2 1.36 4.26 2.88 6.92 4.54a53.37 53.37.0 009.39 4.54 36.51 36.51.0 0013 2q11.61.0 18-5.44t6.36-15.63a14.4 14.4.0 00-2.87-9.29 23.23 23.23.0 00-7.63-6 57.08 57.08.0 00-10.8-4.14q-6.06-1.69-12.32-3.7a106.88 106.88.0 01-12.31-4.79 40.31 40.31.0 01-10.81-7.29 33.22 33.22.0 01-7.62-11.24q-2.88-6.73-2.88-16.62a39 39 0 013.18-15.38 39.41 39.41.0 019.29-13.28 45.89 45.89.0 0115-9.29 55.07 55.07.0 0120.29-3.49 68.79 68.79.0 0123.82 4 53.85 53.85.0 0118.58 11.18z"></path><path class="cls-1" d="M1369.6 399.82a79.39 79.39.0 01-5.35 29.41 69.65 69.65.0 01-15 23.42 68.34 68.34.0 01-23.33 15.43 85.14 85.14.0 01-60.42.0 67.68 67.68.0 01-38.52-38.85 83.51 83.51.0 010-58.82 67.7 67.7.0 0138.52-38.84A79.73 79.73.0 011295.7 326a78.75 78.75.0 0130.18 5.59 67.75 67.75.0 0138.37 38.79A79.47 79.47.0 011369.6 399.82zm-27.87.0a66.57 66.57.0 00-3.18-21.32 45 45 0 00-9.13-16 39.35 39.35.0 00-14.49-10.08 54.74 54.74.0 00-38.52.0 39.8 39.8.0 00-14.59 10.08 45.4 45.4.0 00-9.24 16 72 72 0 000 42.64 44.82 44.82.0 009.24 16 40.07 40.07.0 0014.59 10 54.89 54.89.0 0038.52.0 39.61 39.61.0 0014.49-10 44.48 44.48.0 009.13-16A66.53 66.53.0 001341.73 399.82z"></path><path class="cls-1" d="M1491.36 438a5.14 5.14.0 013.84 1.7l10.7 11.48A58.71 58.71.0 011484 467.83q-13 5.79-31.15 5.79a74.37 74.37.0 01-29.23-5.49 64.6 64.6.0 01-22.16-15.28 66.76 66.76.0 01-14.08-23.37 86.7 86.7.0 01-4.9-29.66A79.2 79.2.0 011388 370a68.21 68.21.0 0115.35-23.31A69.51 69.51.0 011427 331.47a82.11 82.11.0 0130.44-5.44q16.24.0 28.42 5.14a66.51 66.51.0 0120.85 13.63l-9.09 12.48a8.25 8.25.0 01-2.07 2.1 5.9 5.9.0 01-3.48.9 8 8 0 01-4.75-1.8 58.33 58.33.0 00-6.16-3.9 51 51 0 00-9.44-3.89 55 55 0 00-33.42 1.75 42.12 42.12.0 00-14.84 10.13 46.57 46.57.0 00-9.69 16 61 61 0 00-3.48 21.22 62.63 62.63.0 003.48 21.67 47.5 47.5.0 009.44 16 40.34 40.34.0 0014 9.94 44 44 0 0017.37 3.44 76.5 76.5.0 0010.05-.6 42.67 42.67.0 008.27-1.9 36.6 36.6.0 007.17-3.34 44.6 44.6.0 006.72-5 9.29 9.29.0 012.12-1.45A5.31 5.31.0 011491.36 438z"></path><path class="cls-1" d="M1557 472h-27.26V327.62H1557z"></path><path class="cls-1" d="M1718.12 472h-21a9.23 9.23.0 01-5.81-1.75 9.92 9.92.0 01-3.28-4.34l-10.9-29.46h-60.48l-10.9 29.46a9.46 9.46.0 01-3.18 4.19 9 9 0 01-5.81 1.9h-21.1L1633 327.62h27.76zm-94.5-54.52h46.54l-17.77-48q-1.22-3.19-2.68-7.54t-2.87-9.43q-1.42 5.08-2.78 9.49t-2.67 7.68z"></path><path class="cls-1" d="M1821.2 327.62v22.07h-43.92V472h-27.16V349.69H1706V327.62z"></path><path class="cls-1" d="M1930.54 327.62V349h-64.72v40h51v20.67h-51v40.84h64.72V472h-92.08V327.62z"></path><path class="cls-1" d="M2032.31 353.89a7.42 7.42.0 01-2.58 3.09 6.48 6.48.0 01-3.48.9 8.82 8.82.0 01-4.54-1.55c-1.69-1-3.67-2.18-6-3.44a49 49 0 00-8-3.45 34.11 34.11.0 00-10.85-1.55 32.15 32.15.0 00-9.84 1.35A20.87 20.87.0 001980 353a14.87 14.87.0 00-4.29 5.74 18.55 18.55.0 00-1.42 7.34 12.69 12.69.0 002.88 8.49 24.12 24.12.0 007.62 5.79 70.77 70.77.0 0010.81 4.29q6.06 1.91 12.37 4.05a119.56 119.56.0 0112.36 5 43 43 0 0110.81 7.19 32.66 32.66.0 017.62 10.64 36.5 36.5.0 012.88 15.27 49.2 49.2.0 01-3.39 18.33 42.23 42.23.0 01-9.89 14.88 46.6 46.6.0 01-15.9 10 59.14 59.14.0 01-21.51 3.65 70 70 0 01-13.73-1.35 73.3 73.3.0 01-13-3.84 67.67 67.67.0 01-11.61-6 56.36 56.36.0 01-9.64-7.78l7.87-12.89a9.9 9.9.0 012.68-2.34 6.59 6.59.0 013.48-.95 9.66 9.66.0 015.45 2c2 1.36 4.26 2.88 6.92 4.54a53.37 53.37.0 009.39 4.54 36.51 36.51.0 0013 2q11.61.0 18-5.44t6.36-15.63a14.45 14.45.0 00-2.87-9.29 23.23 23.23.0 00-7.63-6 57.08 57.08.0 00-10.8-4.14q-6.06-1.69-12.32-3.7a106.88 106.88.0 01-12.31-4.79 40.15 40.15.0 01-10.81-7.29 33.22 33.22.0 01-7.62-11.24q-2.88-6.73-2.88-16.62a39 39 0 013.18-15.38 39.41 39.41.0 019.29-13.28 46 46 0 0115-9.29 55.17 55.17.0 0120.3-3.49 68.83 68.83.0 0123.82 4A53.85 53.85.0 012039 341.2z"></path><path class="cls-2" d="M1708 226.92a81.54 81.54.0 01-7.83 35.24 105.05 105.05.0 01-20.79 29.52q6 9 12.2 17.16t13.1 16.27a4.93 4.93.0 011.51 3.61 4.63 4.63.0 01-1.21 3.16 3.83 3.83.0 01-3 1.36q-2.41.0-7.08-4.37t-9.63-9.94q-5-5.56-9.34-11t-5.87-7.53a118.89 118.89.0 01-29.67 16.87 90.41 90.41.0 01-33.28 6.32 83.62 83.62.0 01-11.74-.9 91 91 0 01-12.5-2.71 75.21 75.21.0 01-11.75-4.52 54.2 54.2.0 01-10.09-6.33 37.88 37.88.0 01-8.88-9.78 67.62 67.62.0 01-6.32-12.65 84.21 84.21.0 01-3.92-13.71 69.24 69.24.0 01-1.36-13.25 51.88 51.88.0 018-28.31 94.63 94.63.0 0120-22.59 185 185 0 0126.06-17.92q14-8 26-14.9-.62-5.13-1.51-10.09a56.59 56.59.0 01-.9-10.09 82.21 82.21.0 012.56-20.33 80 80 0 017.53-19.12A72.34 72.34.0 011640.72 1e2a55 55 0 0117-11.59 36.82 36.82.0 015.57-2 23 23 0 015.87-.75 25.5 25.5.0 0117.62 6.62q7.38 6.63 7.38 17.17a48 48 0 01-2.26 14.45 74.26 74.26.0 01-6 14 101 101 0 01-8.43 12.8 115.09 115.09.0 01-9.49 10.84 103.2 103.2.0 01-14 11.75q-7.39 5.12-15.21 9.93A364.25 364.25.0 001652 234a264.47 264.47.0 0021.68 47.74A97.73 97.73.0 001691.77 256a69.23 69.23.0 006.93-30.57 53.62 53.62.0 00-.6-8.13q-.61-3.91-1.51-8.13V208a4.58 4.58.0 011.21-3.16 3.83 3.83.0 013-1.36 4.28 4.28.0 014.52 3.62 43 43 0 012.1 9.78A95.34 95.34.0 011708 226.92zm-44.58 63.85a249.15 249.15.0 01-24.84-47.58 312.28 312.28.0 01-15.21-51.5q-9.65 5.42-21.54 12a154.84 154.84.0 00-22.28 15.06A91.7 91.7.0 001562 237.62a39.41 39.41.0 00-7.23 23 62.52 62.52.0 00.9 10.23 59 59 0 002.86 10.7 57.42 57.42.0 004.82 9.94 31 31 0 006.48 7.68 51 51 0 0017.92 9 71.77 71.77.0 0020 3 80.91 80.91.0 0029.66-5.57 99.46 99.46.0 0026.05-14.83zm14.76-180.7q0-5.11-2.71-6.63a15 15 0 00-7.23-1.5 5.4 5.4.0 00-3.31.9q-14.76 8.44-22.44 21.69t-7.68 30.41a77.47 77.47.0 00.9 12.05 130.08 130.08.0 0011.15-7.23 68.45 68.45.0 009.94-8.73 83.41 83.41.0 007.37-8.58 105.41 105.41.0 006.93-10.39 62.06 62.06.0 005.12-11.15 33.33 33.33.0 002-10.84z"></path><path class="cls-3" d="M906 217a75.81 75.81.0 01-3 22.2 46.79 46.79.0 01-9.24 17.17 41.48 41.48.0 01-15.52 11.12q-9.35 3.94-22 3.95a105.39 105.39.0 01-11.3-.6 98.18 98.18.0 01-11.61-2l1.81-19.73a5.94 5.94.0 012.06-4.2 7.65 7.65.0 015.17-1.6 20.08 20.08.0 014.22.55 29.11 29.11.0 006 .55 24.87 24.87.0 008.59-1.35 13.36 13.36.0 006.07-4.51 21.58 21.58.0 003.62-8.26 56.12 56.12.0 001.21-12.62V124H906z"></path><path class="cls-3" d="M1074.56 196.85a78.18 78.18.0 01-5.47 29.44 69.73 69.73.0 01-39.37 39.44 87.63 87.63.0 01-62.23.0A69.79 69.79.0 01928 226.29a82 82 0 010-58.88 69.94 69.94.0 0115.47-23.63 71.69 71.69.0 0124-15.72 82.21 82.21.0 0131.14-5.71 81.06 81.06.0 0131.09 5.76 71.82 71.82.0 0124 15.77 70.41 70.41.0 0115.42 23.63A77.92 77.92.0 011074.56 196.85zm-34.75.0a63.1 63.1.0 00-2.81-19.48 41.17 41.17.0 00-8.09-14.66 34.88 34.88.0 00-12.9-9.22 44.69 44.69.0 00-17.38-3.2 45.36 45.36.0 00-17.53 3.2 34.74 34.74.0 00-13 9.22 41 41 0 00-8.09 14.66 69.24 69.24.0 000 39 41 41 0 008.09 14.67 34.16 34.16.0 0013 9.16 45.93 45.93.0 0017.53 3.16 45.26 45.26.0 0017.38-3.16 34.29 34.29.0 0012.9-9.16 41.14 41.14.0 008.09-14.67A63.37 63.37.0 001039.81 196.85z"></path><path class="cls-3" d="M1112.43 124.16a9.3 9.3.0 012.71.75 9.17 9.17.0 012.31 1.55 27 27 0 012.51 2.7l69.51 87.61q-.4-4.2-.61-8.16t-.2-7.46V124h29.93V269.84h-17.67a16.34 16.34.0 01-6.63-1.2 14.19 14.19.0 01-5.23-4.41l-69-86.91q.3 3.81.5 7.46c.14 2.44.2 4.73.2 6.86v78.2h-29.93V124h17.88A27.92 27.92.0 011112.43 124.16z"></path><path class="cls-3" d="M1378.9 269.84h-26.32a12.17 12.17.0 01-7.28-2 10.62 10.62.0 01-4-5.26l-8.63-25.43h-55.65l-8.64 25.43a11.6 11.6.0 01-11 7.31h-26.52L1287.5 124h34.75zm-94-55.77h40l-13.46-39.95q-1.31-3.81-3.06-9T1304.87 154q-1.61 6.12-3.31 11.32t-3.22 9z"></path><path class="cls-3" d="M1518.51 269.84h-34.15V208.16H1424.9v61.68h-34.15V124h34.15v61h59.46V124h34.15z"></path><path class="cls-4" fill="#fe5e00" d="M402.13 163.56c-7-9.43-12.42-17.16-18.25-24.6-32.13-41-70.88-72-124.33-79C173.18 48.52 84 107.88 55.22 195.17 28 277.66 66.38 378.33 140.88 420.08c82.82 46.42 170.5 25.68 221.45-53.75 14.18-22.11 25-46.47 36.6-70.15 17.18-35 31.83-71.4 50.91-105.31 45.12-80.18 106.7-105.39 195.57-83 9.48 2.39 19 4.65 30 7.35C634.3 32 478 27.8 402.13 163.56z"></path><path class="cls-5" fill="#394da6" d="M762.27 197.74c-51-78.32-166.37-102.85-234-47.86-24.28 19.73-43.38 48.19-58.74 76-26.86 48.77-46.77 101.36-73.7 150.13-40.94 74.24-99.68 99.39-182.83 83.27-12.3-2.4-24.49-5.6-39.82-9.17 22.64 33.23 51.17 51.31 87 53.83C344 509.8 400.42 465.87 443.33 395.7c9.54 12.41 17.15 22.85 25.26 32.86 44.51 55 101.14 85.17 172.19 70.36 126.4-26.36 207.71-168.81 121.49-301.18z"></path><path class="cls-6" fill="#fff" d="M671.73 414 657.18 374.9H558.12L543.57 414H487.8l89-231h61.66l89 231zM607.65 232.19l-36 99.41h72z"></path><path class="cls-6" fill="#fff" d="M131.62 358.21l22.91-39.9c9.6 9.24 22.16 17.73 39.16 17.73 23.27.0 38.42-15.88 38.42-39.52V131.75h52.82V297.26c0 58-36.57 85.33-86.81 85.33C173 382.59 149.36 375.57 131.62 358.21z"></path></svg>
