<svg width="270" height="62" viewBox="0 0 270 62" xmlns="http://www.w3.org/2000/svg"><g fill="#00a19a"><g transform="translate(259 23)"><path d="M3.9,3 C4.2,2.9 4.7,2.9 5.1,2.9 C5.8,2.9 6.2,3 6.5,3.3 C6.7,3.5 6.9,3.8 6.9,4.2 C6.9,4.8 6.5,5.3 6,5.4 L6,5.4 C6.4,5.5 6.6,5.9 6.7,6.4 C6.9,7.1 7,7.5 7.1,7.7 L6.5,7.7 C6.4,7.6 6.3,7.1 6.2,6.5 C6.1,5.8 5.8,5.6 5.2,5.6 L4.6,5.6 L4.6,7.7 L4,7.7 L4,3 L3.9,3 Z M4.5,5.2 L5.1,5.2 C5.8,5.2 6.2,4.8 6.2,4.3 C6.2,3.7 5.7,3.4 5.1,3.4 C4.8,3.4 4.6,3.4 4.5,3.5 L4.5,5.2 Z"/><path d="M5.5,10.3 C2.7,10.3 0.5,8 0.5,5.3 C0.5,2.6 2.8,0.3 5.5,0.3 C8.3,0.3 10.5,2.6 10.5,5.3 C10.5,8 8.2,10.3 5.5,10.3 Z M5.5,1.2 C3.2,1.2 1.4,3.1 1.4,5.3 C1.4,7.6 3.3,9.4 5.5,9.4 C7.8,9.4 9.6,7.5 9.6,5.3 C9.6,3 7.7,1.2 5.5,1.2 Z"/></g><path d="M249.3 58C247.4 58 245.6 57.7 243.9 57 242.2 56.4 240.8 55.4 239.6 54.3 238.4 53.1 237.5 51.7 236.8 50.1 236.1 48.5 235.8 46.7 235.8 44.7L235.8 44.6C235.8 42.8 236.1 41 236.7 39.4 237.3 37.8 238.2 36.3 239.3 35.1 240.4 33.9 241.8 32.9 243.3 32.2 244.9 31.5 246.6 31.1 248.5 31.1 250.7 31.1 252.5 31.5 254.1 32.3 255.7 33.1 257 34.1 258 35.4 259 36.7 259.8 38.2 260.3 39.9 260.8 41.6 261 43.3 261 45.2 261 45.5 261 45.8 261 46.1 261 46.4 261 46.8 260.9 47.1L242.9 47.1C243.3 48.8 244 50 245.1 50.9 246.2 51.8 247.6 52.2 249.2 52.2 250.4 52.2 251.5 52 252.5 51.6 253.5 51.2 254.5 50.5 255.5 49.6L259.7 53.3C258.5 54.8 257 56 255.3 56.8 253.7 57.6 251.7 58 249.3 58M254 42.5C253.8 40.9 253.2 39.5 252.3 38.5 251.4 37.5 250.1 37 248.6 37 247.1 37 245.8 37.5 244.9 38.5 244 39.5 243.3 40.8 243 42.5L254 42.5ZM224.9 57.9C223.1 57.9 221.2 57.6 219.3 57 217.4 56.4 215.6 55.4 213.8 54L216.9 49.2C218.3 50.2 219.7 51 221.1 51.5 222.5 52 223.8 52.3 225 52.3 226.1 52.3 226.8 52.1 227.3 51.8 227.8 51.4 228 51 228 50.4L228 50.3C228 49.9 227.9 49.6 227.6 49.3 227.3 49 226.9 48.8 226.4 48.6 225.9 48.4 225.3 48.2 224.7 48 224.1 47.8 223.4 47.6 222.7 47.4 221.8 47.1 220.9 46.8 220 46.5 219.1 46.1 218.3 45.6 217.5 45.1 216.8 44.5 216.2 43.8 215.7 42.9 215.2 42 215 41 215 39.7L215 39.6C215 38.3 215.3 37.1 215.7 36.1 216.2 35.1 216.9 34.2 217.7 33.5 218.6 32.8 219.5 32.3 220.7 31.9 221.8 31.5 223.1 31.4 224.4 31.4 226 31.4 227.7 31.7 229.4 32.2 231.1 32.7 232.6 33.5 234 34.4L231.2 39.5C229.9 38.8 228.7 38.2 227.4 37.7 226.2 37.3 225.1 37 224.2 37 223.3 37 222.6 37.2 222.2 37.5 221.7 37.8 221.5 38.3 221.5 38.8L221.5 38.9C221.5 39.3 221.6 39.6 221.9 39.8 222.2 40.1 222.6 40.3 223.1 40.6 223.6 40.8 224.1 41.1 224.8 41.3 225.4 41.5 226.1 41.8 226.8 42 227.7 42.3 228.6 42.6 229.5 43 230.4 43.4 231.3 43.9 232 44.5 232.7 45.1 233.3 45.8 233.8 46.6 234.3 47.4 234.5 48.4 234.5 49.6L234.5 49.7C234.5 51.1 234.3 52.4 233.8 53.4 233.3 54.4 232.6 55.3 231.7 56 230.8 56.7 229.7 57.2 228.5 57.5 227.5 57.7 226.2 57.9 224.9 57.9"/><rect x="204.5" y="31.6" width="7.3" height="25.8"/><path d="M209.2,24.5 C209.9,24.9 210.4,25.5 210.4,26.1 C210.4,27.3 208.6,28.3 206.4,28.3 C205.2,28.3 204,28 203.3,27.5 C203.7,28.7 205.6,29.6 207.9,29.6 C210.5,29.6 212.6,28.4 212.6,27 C212.6,25.9 211.2,24.9 209.2,24.5 Z"/><polygon points="163 31.6 170.4 31.6 174.5 47.2 179.4 31.5 185.7 31.5 190.6 47.3 194.9 31.6 202.1 31.6 194.1 57.6 187.5 57.6 182.5 41.8 177.5 57.6 170.9 57.6"/><path d="M163.4,43.9 C161.5,49.2 159.7,53.4 157.7,53.2 C156.9,53.1 157.1,52.1 157.2,50.1 C157.5,45.3 157.8,40.6 158.1,35.8 C158.4,31.5 158.7,27.3 159.1,23 C159.7,17.3 160,15.8 160.7,10.1 C160,10.3 154.9,11.9 154,18.5 C153.4,22.9 152.9,26.7 152.8,28.3 C151.3,28.1 147.7,28.4 145.8,29.9 C143.4,31.8 141.2,35.2 140.2,38.9 C139,39.9 137.3,40.7 135.7,41.3 C135.6,41 135.6,40.8 135.5,40.6 C135.2,39.5 134.8,38.4 133.8,37.6 C132.4,36.4 130.1,36.8 129.4,40 C128.8,42.6 129.7,43.9 131.3,45.7 C130.1,52.1 128.4,54.1 127.7,54.7 C126.9,55.4 126.2,55.2 125.7,54.6 C125.4,54.3 125.2,54 125.1,53.7 C124.2,51.9 124,49.9 123.9,47.9 C123.7,43.7 124,39.6 125.3,35.5 C125.7,34.3 126.1,33.2 127.1,32.3 C128,31.5 129.1,31.5 129.7,32.5 C130.2,33.3 130.6,34.8 130.8,35.6 C131.9,36 133.9,35.2 134.3,34 C134.8,32.5 134.4,31.1 133.2,29.9 C131.5,28.1 128,27.5 125.3,28.5 C122.9,29.2 120.2,32.1 119.6,33.1 C117.9,33.5 115,34 113.4,33.8 C113,32.9 112.5,31.9 110.6,31.2 C109.6,29.3 105.5,29 102.7,30.4 C100.4,31.6 99.1,33.4 98.1,35.5 C95.8,40.3 95.3,45.3 96.2,50.4 C96.6,52.8 97.4,55.1 99.3,57 C101.4,59.2 104.9,59.7 107.7,58.1 C109.5,57 110.7,55.5 111.6,53.8 C114,49.2 114.8,44.4 114.4,39.4 C114.3,38.8 114.3,38.1 114.2,37.5 C116.2,37.5 118,37.1 118.4,37 C117.2,41 116.9,45.2 117.6,49.3 C118.1,52.1 118.9,54.7 120.8,57 C122.5,59 125.1,59.9 127.7,59.2 C129.9,58.6 131.3,57.2 132.4,55.6 C134.4,52.7 135.4,49 135.8,45.6 C137.4,44.9 138.8,44.1 139.6,43.5 C139.5,44.2 139.3,49 139.8,51.8 C140.2,53.9 140.8,56 142.4,57.7 C143.9,59.3 146.2,59.7 148.2,58.5 C149.1,58 149.9,57.3 150.5,56.5 C151.2,55.7 151.6,54.7 152.2,53.8 C152.3,54.4 152.4,54.9 152.6,55.5 C152.8,56.1 153,56.7 153.4,57.2 C154.3,58.7 155.8,59.2 157.6,58.5 C158.5,58.2 159.3,57.7 160,57.1 C162.8,54.5 162.6,54.4 164.5,50.8 C166.1,47.4 164,44.9 163.4,43.9 Z M107.7,51.5 C107.4,52.4 106.8,53.2 106.1,54 C105.4,54.8 104.4,54.8 103.6,53.9 C102.6,52.8 102.4,51.4 102.2,50.1 C101.6,45.6 101.9,41.2 103.2,36.9 C103.6,35.7 103.9,34.8 105.1,33.7 C106,32.9 106.6,33.1 106.7,33.2 C105.4,36 108.4,38.3 109.6,38.2 C109.9,42.5 109.3,47.3 107.7,51.5 M151.7,42.6 C151.3,45.6 151,47.2 150,49.9 C149.6,51 148.4,54 146.9,53.9 C145.3,53.7 144.8,47.5 145.5,42.7 C146.3,37.7 147.7,34.4 148.7,33 C149.3,32.2 150.6,31.2 152.5,32 C152.3,35.2 152.1,39.3 151.7,42.6"/><path d="M103 12.5C104.2 9.6 104 4.9 98.7 5 96.8 5 92.7 5.3 89 10L89 10C88.4 10.7 87.8 11.5 87.3 12.4 87.1 12.6 87 12.9 86.9 13.2 86.2 14.4 85.6 15.7 85.1 17.5 83.4 22.4 83 29.2 82.7 33.3 78.4 33.3 74.1 32 71.9 30.7 70.6 32.3 70.2 37.1 74.9 38.5 77.6 39.3 80.1 39.1 82.4 38.9 82.4 39 82.4 39 82.4 39 82.4 39.3 82.4 39.5 82.4 39.8 82.3 42.8 81.6 57.9 78 57.6 75.8 57.5 73.6 50.6 72.2 45.5 72.1 45 71.9 44.8 71.5 44.7 70.4 44.4 68.8 44.9 68.2 46.1 67.5 47.4 67.4 48.8 67.7 50.2 68.6 54.7 72.9 59.5 75.8 60.7 79.2 62.1 83.2 62.2 85.4 57.9 88 52.9 88.6 45.2 88.8 43 88.9 40.9 89.1 40.2 89.1 38L89.1 38C89.3 38 95.3 37 98.8 35.8 99 34.4 97.7 32.6 95.5 32.7 93.5 32.7 91.5 33 89.4 33.1 89.4 32.9 89.5 20.4 90.8 15.6 92 10.4 99.6 11.1 103 12.5M26.2 23.4C29.5 23.5 33 23.7 36.5 24 36.6 23.8 36.7 23.6 36.8 23.4 36.5 23.3 28.9 23.3 26.2 23.4Z"/><path d="M63.1,29.1 C63,27.9 60.1,26.9 55.5,26.1 C52.7,25.6 50.6,25.3 46.9,25.1 C46.8,25.5 46.7,25.9 46.6,26.3 C52.3,27.1 55.2,28 55.2,29.1 C55.2,30.3 50,32 43.6,32.8 C43.6,32.8 43.6,32.8 43.5,32.8 C44,30.8 46.9,20.1 47.3,18.7 C49.1,18.3 51.4,17.1 52,15.3 C53,12.5 50.9,9.8 48.1,8.8 C45.3,7.8 40.9,9 39.9,11.8 C39.3,13.6 40.8,15.3 41.9,16.7 C41.1,18.4 35.4,31 34.4,33.4 C31.4,33.4 28.6,33.2 27.5,32.4 C27,33.3 27.9,34.3 29.1,34.4 C37.1,35.1 45,34 54.6,32.3 C59.8,31.4 63.2,30.4 63.3,29.1 C63.1,29.2 63.1,29.1 63.1,29.1 Z"/><path d="M58.8,33.9 C55.4,35.9 56.1,37.2 53.9,41 C50,47.8 45.2,52.6 31.9,52.7 C22.9,52.8 14.6,46.9 10.1,39.3 C13.9,35 17.8,34.5 21.3,31.4 C29.4,24.1 27.1,9.7 19.5,0.2 C19.5,0.2 19.5,0.2 19.5,0.2 C18,10.6 4.3,10.7 1,19.9 C-0.4,23.8 1.8,29 4.3,32.2 C4.4,25.5 8,19 14.8,17.1 C11.7,18.6 9.6,22.5 8.5,25.4 C7,29.3 6.9,33.3 7.9,37.2 C10.8,49.7 21.9,59 35.2,59 C50.7,59 63.4,47.9 63.4,32.4 C63.4,32.3 62.7,32.6 58.8,33.9 Z"/></g></svg>
